<?xml version="1.0" standalone="no"?>
<!DOCTYPE svg PUBLIC "-//W3C//DTD SVG 20010904//EN"
 "http://www.w3.org/TR/2001/REC-SVG-20010904/DTD/svg10.dtd">
<svg version="1.0" xmlns="http://www.w3.org/2000/svg"
 width="610.000000pt" height="610.000000pt" viewBox="0 0 610.000000 610.000000"
 preserveAspectRatio="xMidYMid meet">
<metadata>
Created by potrace 1.14, written by Peter Selinger 2001-2017
</metadata>
<g transform="translate(0.000000,610.000000) scale(0.100000,-0.100000)"
fill="#000000" stroke="none">
<path d="M2949 5813 c-1 -4 -1 -11 0 -15 0 -5 -5 -7 -11 -5 -8 1 -13 -7 -12
-20 0 -12 -4 -19 -9 -16 -6 4 -8 -3 -5 -15 4 -12 2 -22 -4 -22 -6 0 -8 -9 -5
-20 3 -11 2 -18 -3 -15 -8 5 -23 -62 -24 -102 0 -13 -4 -23 -9 -23 -5 0 -7 -6
-4 -14 3 -7 2 -17 -3 -22 -5 -5 -11 -31 -14 -59 -3 -27 -8 -61 -11 -75 -3 -14
-7 -43 -9 -66 -1 -22 -6 -46 -10 -52 -4 -6 -7 -26 -7 -44 0 -18 -2 -64 -5
-103 -3 -38 -7 -144 -7 -235 l-2 -165 -40 -1 c-105 -3 -146 -7 -150 -14 -2 -4
-16 -5 -30 -3 -13 3 -33 2 -42 -2 -10 -4 -38 -9 -63 -11 -25 -2 -56 -6 -70
-10 -14 -3 -35 -6 -47 -5 -12 0 -24 -3 -27 -8 -3 -4 -17 -7 -31 -6 -14 2 -25
-1 -25 -6 0 -4 -7 -6 -15 -3 -8 4 -21 1 -29 -5 -7 -6 -15 -8 -19 -5 -3 3 -21
1 -40 -5 -19 -7 -45 -14 -58 -17 -13 -3 -28 -6 -34 -8 -5 -2 -28 -6 -50 -11
-22 -4 -49 -12 -60 -18 -11 -6 -28 -10 -39 -8 -10 1 -15 -2 -12 -7 4 -6 -2 -8
-14 -5 -12 3 -20 0 -20 -6 0 -7 -4 -9 -10 -6 -5 3 -16 3 -22 -2 -7 -4 -20 -9
-29 -10 -9 -1 -29 -8 -45 -14 -33 -14 -29 -13 -71 -23 -18 -4 -33 -12 -33 -17
0 -6 -4 -8 -9 -4 -5 3 -12 1 -16 -5 -4 -6 -11 -8 -16 -5 -5 4 -9 1 -9 -4 0 -6
-3 -10 -7 -10 -5 1 -10 0 -13 -1 -3 -1 -12 -3 -20 -5 -8 -2 -32 -10 -52 -19
-21 -9 -41 -16 -44 -15 -3 0 -12 -8 -21 -18 -8 -10 -12 -12 -8 -6 4 9 1 11 -9
7 -9 -3 -13 -10 -10 -15 3 -5 -2 -6 -10 -3 -9 3 -16 2 -16 -4 0 -6 -13 -13
-30 -17 -16 -4 -30 -11 -30 -16 0 -5 -3 -8 -7 -8 -20 3 -34 -2 -28 -11 3 -6
-1 -7 -9 -4 -9 3 -16 1 -16 -5 0 -6 -9 -11 -21 -11 -13 0 -18 -4 -13 -12 5 -7
3 -8 -5 -4 -7 5 -19 0 -27 -10 -9 -11 -13 -13 -9 -4 4 9 1 8 -8 -3 -9 -10 -18
-18 -21 -18 -20 3 -26 0 -21 -10 4 -6 0 -9 -11 -7 -11 2 -18 -2 -17 -9 2 -8
-4 -10 -14 -6 -12 5 -14 3 -8 -7 5 -9 4 -11 -3 -6 -15 9 -55 -18 -44 -29 4 -5
1 -5 -5 -1 -7 4 -20 -2 -30 -13 -9 -11 -20 -18 -25 -15 -4 3 -8 0 -8 -5 0 -6
-6 -11 -14 -11 -8 0 -17 -7 -20 -16 -3 -8 -10 -13 -15 -9 -5 3 -16 -3 -23 -13
-7 -11 -17 -21 -23 -23 -5 -2 -9 -8 -7 -12 1 -5 -1 -6 -6 -3 -5 3 -18 -2 -28
-10 -10 -9 -13 -12 -5 -8 9 5 12 3 7 -5 -4 -6 -11 -9 -15 -7 -10 7 -36 -11
-36 -25 0 -7 -8 -13 -18 -15 -10 -1 -29 -14 -42 -28 -13 -14 -26 -26 -29 -26
-11 0 -91 -82 -88 -91 1 -6 -1 -8 -6 -5 -12 7 -64 -48 -55 -58 5 -4 1 -6 -7
-4 -8 1 -14 -3 -12 -10 1 -6 -4 -11 -10 -10 -7 2 -12 -3 -10 -10 1 -8 -2 -11
-7 -8 -5 4 -19 -6 -30 -21 -12 -16 -29 -38 -39 -51 -9 -12 -28 -34 -42 -49
-14 -14 -18 -22 -10 -18 8 4 2 -4 -13 -18 -18 -16 -26 -31 -21 -39 4 -7 4 -10
-1 -6 -9 8 -64 -60 -65 -79 0 -7 -5 -13 -12 -13 -6 0 -9 -3 -5 -6 3 -4 -1 -13
-9 -21 -8 -8 -11 -20 -7 -26 3 -7 3 -9 -2 -5 -11 11 -38 -29 -29 -44 4 -7 3
-8 -4 -4 -11 6 -16 -6 -13 -26 0 -5 -4 -8 -10 -8 -6 0 -8 -7 -5 -16 4 -10 2
-13 -6 -8 -8 5 -9 2 -5 -10 4 -9 3 -15 -2 -12 -4 3 -13 -6 -20 -20 -9 -20 -9
-24 1 -19 7 4 5 0 -6 -9 -10 -8 -15 -19 -11 -25 3 -6 1 -11 -5 -11 -6 0 -8 -4
-5 -10 3 -5 1 -10 -5 -10 -6 0 -8 -4 -5 -10 3 -5 1 -10 -4 -10 -6 0 -10 -3 -9
-7 1 -5 -4 -19 -11 -32 -9 -17 -10 -21 -1 -16 7 4 5 -4 -4 -17 -9 -14 -13 -28
-9 -31 3 -4 2 -7 -4 -7 -5 0 -10 -6 -11 -12 -1 -15 -10 -53 -12 -53 -1 0 -3
-7 -5 -15 -2 -8 -6 -25 -9 -37 -12 -49 -17 -69 -21 -93 -2 -14 -7 -36 -10 -50
-16 -72 -22 -307 -10 -430 3 -36 6 -73 6 -82 0 -10 4 -20 9 -23 4 -3 6 -14 3
-25 -3 -11 -1 -20 5 -20 6 0 9 -11 6 -25 -2 -14 0 -25 5 -25 6 0 8 -7 5 -15
-4 -8 -1 -21 5 -29 6 -7 8 -16 4 -19 -3 -4 -2 -12 4 -19 5 -7 10 -24 11 -38 1
-14 6 -26 11 -28 5 -2 7 -10 4 -19 -5 -12 -3 -14 6 -8 10 5 11 2 7 -13 -4 -11
-2 -23 4 -27 5 -3 10 -15 10 -26 0 -13 4 -18 12 -13 7 5 8 3 4 -5 -5 -7 0 -21
11 -33 10 -12 12 -18 6 -14 -9 5 -11 2 -7 -8 3 -9 10 -13 15 -10 5 3 6 -2 3
-10 -3 -9 -1 -16 6 -16 6 0 8 -4 5 -10 -3 -5 -1 -10 6 -10 7 0 9 -3 6 -7 -4
-3 1 -12 11 -20 9 -8 11 -12 5 -8 -8 4 -11 1 -7 -9 3 -8 12 -17 20 -20 7 -3
11 -12 8 -21 -3 -8 -1 -15 6 -15 6 0 8 -4 5 -10 -3 -5 -1 -10 4 -10 6 0 11 -7
11 -16 0 -9 5 -12 12 -8 8 5 9 2 5 -9 -3 -10 -2 -17 3 -17 6 0 10 -7 10 -15 0
-8 9 -24 20 -35 11 -11 20 -23 20 -26 0 -4 8 -13 18 -21 11 -10 12 -12 2 -8
-10 4 -9 2 3 -8 9 -8 17 -19 17 -25 0 -6 10 -18 22 -26 12 -9 19 -16 15 -16
-4 0 -2 -6 5 -14 7 -8 17 -11 22 -8 5 3 6 1 3 -5 -9 -14 22 -55 35 -47 6 4 8
3 5 -3 -7 -12 66 -93 84 -93 7 0 10 -3 6 -6 -8 -8 18 -34 34 -34 7 0 10 -3 6
-6 -8 -8 59 -74 75 -74 6 0 8 -3 5 -7 -4 -3 6 -17 21 -30 15 -13 37 -33 50
-45 12 -13 22 -19 22 -15 0 4 13 -7 28 -23 16 -16 32 -27 35 -23 4 3 7 1 7 -6
0 -7 5 -9 12 -5 7 5 8 3 4 -5 -5 -8 0 -14 13 -18 12 -3 21 -9 21 -14 0 -5 6
-9 14 -9 8 0 16 -3 18 -7 5 -13 78 -65 78 -57 0 4 7 -1 16 -12 8 -10 13 -12 9
-4 -4 8 3 4 14 -10 11 -14 21 -21 21 -16 0 6 6 2 13 -9 9 -11 19 -15 27 -10 9
5 11 4 6 -3 -6 -11 0 -14 20 -11 4 0 10 -3 13 -8 14 -19 54 -47 47 -33 -4 8
-1 7 8 -4 8 -10 20 -15 27 -10 8 5 10 3 4 -6 -6 -10 -4 -12 9 -7 11 5 15 3 10
-5 -5 -8 -2 -9 10 -5 10 4 15 3 11 -3 -5 -9 -1 -11 20 -10 3 1 13 -6 21 -15 9
-8 20 -13 25 -10 5 4 9 2 9 -4 0 -10 38 -27 53 -23 4 1 7 -3 7 -9 0 -6 7 -8
16 -5 8 3 13 2 10 -3 -3 -5 1 -12 10 -15 10 -4 13 -2 9 7 -4 6 1 3 9 -7 9 -11
19 -17 22 -13 4 3 13 -1 21 -9 8 -8 18 -12 23 -9 5 3 11 1 15 -5 4 -6 11 -8
16 -5 5 4 9 1 9 -5 0 -7 7 -9 16 -6 8 3 12 2 9 -4 -3 -6 3 -10 14 -10 11 0 22
-4 26 -9 3 -6 14 -8 25 -6 13 3 18 0 14 -7 -5 -7 -2 -9 9 -5 9 3 17 3 19 -1 5
-12 100 -42 112 -35 6 3 7 2 3 -3 -8 -9 68 -35 110 -38 11 0 19 -4 17 -7 -3
-5 54 -20 91 -24 6 0 15 -3 20 -7 6 -3 26 -9 45 -13 19 -3 42 -7 50 -9 8 -2
23 -6 33 -11 9 -4 24 -5 32 -1 8 3 15 1 15 -4 0 -6 3 -9 7 -8 5 1 28 -2 53 -7
25 -4 54 -9 65 -11 11 -2 31 -5 45 -8 49 -9 116 -18 160 -21 25 -2 52 -6 60
-9 8 -2 31 -5 50 -5 19 -1 80 -4 135 -8 122 -8 366 -8 495 0 52 4 114 7 138 8
23 0 42 4 42 8 0 4 20 6 45 4 25 -2 45 0 45 5 0 4 13 7 28 6 24 -1 89 7 147
19 11 3 44 8 73 12 28 4 52 10 52 14 0 4 10 7 23 7 37 0 147 26 147 35 0 5 6
6 13 4 19 -7 139 30 130 40 -4 4 -3 5 4 1 14 -8 103 15 103 27 0 4 4 6 9 3 5
-3 24 0 42 8 19 7 43 17 54 21 11 5 23 9 28 10 4 2 9 4 12 5 3 1 8 3 13 5 51
14 62 18 62 26 0 5 3 8 8 7 14 -3 62 14 62 23 0 5 3 8 8 6 12 -3 122 45 122
55 0 4 3 7 8 6 15 -5 91 36 85 45 -3 6 -1 7 5 3 12 -7 102 38 113 56 3 5 9 9
13 9 20 -3 26 0 20 11 -4 6 -3 8 3 5 12 -8 65 27 56 37 -4 4 0 4 8 1 9 -3 27
5 42 19 15 14 31 26 35 27 20 3 60 34 55 42 -3 6 -2 7 4 4 7 -5 154 99 173
122 3 4 24 21 48 40 23 18 39 38 36 43 -4 6 -2 8 3 5 12 -7 46 26 38 36 -3 4
-2 5 2 2 11 -8 63 47 56 59 -3 6 -3 8 2 4 11 -11 36 12 28 26 -3 6 -3 8 2 4
11 -11 36 12 28 25 -3 5 -1 7 4 4 11 -7 49 42 45 56 -1 5 1 6 6 3 11 -6 105
112 105 131 0 7 3 11 5 8 6 -6 72 90 72 105 0 5 4 10 9 10 10 0 149 275 154
305 1 11 5 25 8 30 30 51 84 280 96 405 14 151 4 420 -18 446 -5 6 -6 13 -3
16 13 14 -89 358 -106 358 -4 0 -7 6 -6 13 2 22 -77 177 -87 170 -6 -3 -7 -1
-3 6 7 11 -22 68 -50 96 -8 8 -14 17 -13 20 3 14 -66 103 -76 98 -5 -4 -7 -3
-3 2 9 10 -52 96 -64 89 -5 -3 -7 -1 -6 4 5 17 -83 112 -96 105 -6 -3 -7 -2
-3 2 10 11 -113 136 -126 128 -6 -3 -7 -2 -4 4 3 5 -4 18 -16 28 -69 60 -137
115 -137 111 0 -3 -10 5 -23 17 -33 31 -75 59 -81 55 -3 -1 -13 7 -21 20 -9
12 -21 22 -26 22 -5 0 -20 9 -32 20 -12 11 -28 18 -36 15 -9 -3 -12 -3 -8 1 9
10 -65 54 -78 47 -5 -4 -7 -3 -3 2 9 10 -49 48 -62 40 -5 -3 -12 1 -17 8 -12
20 -104 68 -116 60 -6 -3 -7 -1 -3 5 4 7 2 12 -3 12 -6 0 -34 11 -62 25 -29
13 -56 22 -62 18 -6 -3 -7 -1 -4 4 4 6 -6 16 -23 22 -17 5 -30 7 -30 3 0 -4
-4 -2 -8 4 -11 16 -92 45 -104 38 -6 -4 -8 -3 -5 3 5 7 -89 47 -138 58 -5 1
-23 7 -38 14 -16 6 -32 9 -37 6 -5 -3 -10 -1 -12 4 -1 6 -14 12 -28 14 -14 2
-32 7 -40 10 -8 4 -26 8 -40 9 -14 2 -27 6 -30 10 -3 3 -18 8 -35 11 -16 3
-45 10 -64 16 -19 6 -37 9 -39 6 -3 -2 -12 0 -21 5 -10 5 -35 11 -57 14 -21 3
-61 10 -88 16 -27 5 -52 8 -54 5 -3 -3 -11 0 -17 5 -7 6 -37 12 -67 14 -30 1
-58 5 -64 8 -5 4 -50 9 -99 13 -50 3 -103 8 -120 11 -16 2 -108 6 -204 8 -183
4 -201 9 -179 49 5 11 8 30 5 43 -2 13 -1 21 4 18 4 -2 8 4 9 13 2 43 8 80 18
105 6 15 13 38 14 50 2 13 6 28 10 33 3 6 9 26 14 45 11 49 11 49 14 55 1 3 3
8 4 13 1 4 7 17 14 30 7 12 10 22 7 22 -3 0 1 10 10 23 8 13 12 27 8 30 -3 4
-1 7 6 7 7 0 9 5 6 10 -3 6 -1 10 5 10 6 0 8 5 5 10 -3 6 -3 10 2 10 9 0 33
48 33 67 0 7 4 13 9 13 9 0 26 48 23 63 -1 4 2 7 8 7 5 0 10 5 10 11 0 5 11
26 25 46 13 20 22 40 19 45 -3 4 0 8 6 8 7 0 9 7 6 17 -4 10 -4 14 0 10 10
-10 36 31 28 45 -4 7 -3 8 4 4 10 -6 17 7 10 17 -1 1 11 15 25 31 31 33 30 51
-1 50 -12 0 -19 3 -16 7 2 4 -10 11 -28 15 -18 4 -40 9 -48 11 -16 4 -47 9
-120 20 -25 3 -67 5 -93 5 -27 -1 -57 3 -68 8 -10 6 -20 7 -20 3z m-2329
-1987 c0 -2 -8 -10 -17 -17 -16 -13 -17 -12 -4 4 13 16 21 21 21 13z m1796
-164 c1 -31 4 -91 8 -132 18 -228 23 -815 6 -815 -3 0 -12 -40 -14 -62 0 -11
-5 -19 -10 -15 -5 3 -7 -2 -3 -11 8 -21 -30 -27 -58 -10 -12 7 -30 14 -40 16
-23 5 -51 14 -82 29 -11 6 -27 7 -34 3 -8 -5 -10 -4 -5 3 7 11 -7 16 -41 15
-7 -1 -13 4 -13 9 0 6 -7 7 -16 4 -8 -3 -12 -2 -9 4 6 9 -10 14 -42 13 -7 -1
-13 3 -13 7 0 4 -7 11 -16 14 -10 4 -13 2 -8 -7 4 -6 -2 -4 -14 7 -11 10 -32
19 -46 20 -13 0 -22 3 -20 5 7 8 -69 30 -79 24 -6 -4 -7 -1 -2 7 6 10 4 12 -9
7 -10 -4 -15 -3 -11 3 3 6 0 10 -7 10 -18 0 -108 44 -108 53 0 4 5 7 11 7 5 0
7 5 4 10 -4 6 -3 9 2 8 12 -4 53 34 47 44 -3 5 0 7 7 6 7 -2 13 4 14 12 0 8 5
15 12 15 14 0 89 76 86 87 -2 4 2 7 9 6 7 -2 12 4 13 12 0 8 5 15 12 15 7 0
18 6 25 13 6 6 9 12 5 12 -3 0 4 10 16 23 43 45 113 133 157 197 8 13 21 29
28 36 7 8 11 14 8 14 -3 0 3 9 14 20 12 12 18 25 15 30 -3 5 0 12 6 16 8 5 9
3 4 -6 -5 -9 -4 -11 3 -6 7 4 12 14 12 22 0 8 5 14 11 14 6 0 9 7 5 15 -3 8 0
14 7 12 7 -1 11 4 9 11 -1 7 5 15 13 18 8 4 15 12 15 20 0 8 5 14 11 14 5 0 7
5 4 10 -3 6 -2 10 2 10 5 0 14 9 21 21 11 17 11 20 0 14 -7 -5 -3 2 10 14 12
12 19 28 16 34 -4 7 -4 9 1 5 5 -5 16 6 26 22 11 17 20 30 21 30 2 0 4 -26 4
-58z m1169 -91 c59 -59 112 -116 117 -125 5 -9 14 -14 19 -10 5 3 8 1 7 -4 -2
-5 6 -18 17 -28 11 -11 31 -36 45 -56 13 -20 29 -34 34 -31 5 3 6 2 3 -4 -3
-5 5 -21 19 -36 13 -14 24 -31 24 -37 0 -5 5 -10 10 -10 6 0 10 -7 10 -15 0
-8 4 -15 9 -15 5 0 11 -9 14 -21 4 -13 10 -18 18 -13 7 4 10 3 6 -3 -8 -13 22
-55 34 -47 5 3 8 2 7 -3 -4 -10 84 -123 95 -123 4 0 5 -4 2 -10 -3 -5 -2 -10
3 -10 5 0 12 -8 15 -17 2 -10 28 -51 57 -92 41 -58 110 -174 110 -185 0 -1
-32 -3 -72 -4 -40 -2 -75 -5 -78 -7 -3 -2 -35 -7 -70 -10 -36 -4 -69 -9 -73
-12 -5 -3 -26 -7 -46 -9 -20 -2 -47 -6 -61 -9 -14 -3 -41 -8 -60 -11 -19 -3
-42 -7 -50 -10 -8 -3 -32 -8 -53 -10 -21 -3 -50 -9 -63 -14 -34 -13 -36 -5
-39 173 -2 143 -8 234 -20 302 -3 17 -7 46 -10 65 -2 19 -7 46 -10 60 -7 34
-16 101 -16 123 0 9 -3 16 -7 13 -4 -2 -8 10 -8 27 -1 32 -10 92 -13 92 -1 0
-4 14 -6 30 -2 17 -7 41 -10 55 -4 14 -8 34 -9 45 -2 11 -4 20 -5 20 -1 0 -4
12 -6 27 -2 16 -6 37 -10 48 -12 38 13 20 120 -89z m-640 -1081 c-5 -8 14 -28
28 -29 4 -1 6 -2 5 -3 -8 -8 45 -67 55 -62 7 4 9 4 5 -1 -11 -11 31 -67 44
-59 7 4 8 2 4 -5 -4 -6 -1 -14 7 -17 8 -3 17 -15 20 -26 4 -13 10 -17 19 -12
7 4 10 3 5 -1 -4 -5 2 -19 14 -31 11 -12 17 -24 12 -27 -26 -16 -311 -29 -320
-14 -3 5 -19 8 -37 7 -17 -1 -33 -1 -36 0 -10 3 -46 10 -67 12 -30 3 -29 11 6
44 17 15 28 32 25 36 -3 5 0 7 8 6 7 -2 12 4 10 12 -2 8 0 12 4 8 9 -9 55 43
48 54 -3 5 -1 7 4 6 14 -4 53 43 45 55 -3 5 -1 7 5 3 13 -8 44 33 35 47 -3 6
-1 7 5 3 6 -3 13 -2 17 3 3 6 12 8 20 5 8 -4 13 -10 10 -14z m-2172 -3 c-4 -6
0 -8 10 -4 9 3 16 2 14 -2 -1 -5 2 -9 7 -9 5 0 12 -4 15 -9 3 -4 15 -15 25
-23 18 -13 19 -13 11 0 -5 8 4 3 20 -12 15 -16 34 -28 41 -28 7 0 20 -7 28
-16 9 -8 20 -13 25 -9 6 3 13 0 18 -8 10 -16 63 -50 63 -40 0 4 7 -2 16 -13 8
-10 13 -12 9 -4 -4 9 0 7 9 -4 8 -10 20 -15 27 -10 8 5 10 3 4 -6 -6 -10 -4
-12 9 -7 9 4 15 3 12 -2 -5 -8 29 -25 47 -22 4 1 7 -3 7 -8 0 -10 39 -27 53
-23 4 1 7 -2 7 -7 0 -10 39 -27 53 -23 4 1 7 -3 7 -9 0 -5 5 -7 10 -4 6 3 10
1 10 -5 0 -7 7 -9 16 -6 8 3 12 2 9 -4 -3 -6 1 -11 9 -11 31 -3 35 -4 48 -16
6 -7 22 -13 35 -13 13 0 23 -4 23 -9 0 -8 53 -25 77 -24 7 0 10 -3 7 -8 -3 -5
2 -10 10 -10 17 -2 33 -5 41 -9 3 -1 8 -3 13 -4 4 -1 13 -5 20 -9 6 -5 17 -5
23 -1 17 10 4 -58 -17 -91 -14 -22 -15 -27 -4 -20 12 7 13 6 3 -7 -7 -8 -9
-19 -5 -23 4 -5 1 -5 -7 0 -11 6 -13 3 -9 -13 4 -12 3 -20 -2 -17 -7 4 -12
-13 -24 -83 -3 -17 0 -22 9 -18 8 3 15 0 17 -5 2 -6 16 -12 31 -12 15 -1 27
-6 27 -11 0 -4 6 -6 14 -3 8 3 16 1 18 -5 2 -6 24 -12 49 -12 l44 -1 3 50 c6
96 7 103 16 98 5 -4 7 3 4 15 -3 12 -2 22 3 24 5 2 10 17 12 33 2 25 6 30 29
30 15 1 25 -2 22 -6 -4 -7 40 -18 84 -22 12 -1 22 -5 22 -8 0 -3 6 -6 13 -7
38 -5 54 -9 65 -16 6 -4 16 -5 21 -1 5 3 13 0 16 -6 4 -5 13 -8 21 -5 7 3 16
1 19 -5 4 -5 10 -7 14 -5 4 3 13 1 20 -3 14 -9 22 -71 8 -71 -4 0 -8 -10 -7
-22 1 -13 2 -26 1 -30 -1 -5 -1 -9 -1 -10 0 -2 -6 -23 -14 -48 -7 -25 -12 -58
-12 -75 1 -29 2 -30 54 -30 28 0 52 -3 52 -7 0 -3 15 -6 33 -6 17 0 34 -1 37
-2 3 -1 24 -4 48 -5 35 -3 43 0 41 13 -1 9 0 19 1 22 1 3 3 16 5 30 7 50 16
106 21 130 3 14 6 32 7 40 1 11 12 16 37 15 19 0 37 -3 40 -7 3 -4 33 -8 68
-10 34 -2 62 -7 62 -13 1 -10 10 -227 11 -255 0 -13 16 -16 77 -18 42 -1 91
-4 107 -6 17 -2 35 -1 41 1 7 2 11 48 11 129 0 68 3 127 6 131 9 9 71 8 85 -1
7 -4 42 -4 80 -1 101 10 151 11 145 2 -3 -4 -1 -16 3 -25 8 -19 11 -37 13 -83
0 -16 4 -28 9 -25 4 2 7 -20 6 -50 -1 -65 13 -91 42 -76 10 6 45 14 77 17 31
4 55 10 52 14 -2 5 9 7 26 5 36 -4 47 16 29 54 -17 35 -17 34 -21 122 l-4 75
40 3 c22 1 47 5 55 9 8 3 37 7 63 9 26 2 52 6 56 9 5 2 36 8 70 11 58 5 61 5
61 -16 0 -13 4 -19 12 -14 6 4 8 3 5 -3 -4 -6 0 -30 7 -54 8 -24 21 -64 28
-89 20 -73 28 -75 100 -39 35 17 66 36 69 41 3 5 10 9 15 9 21 -2 44 12 44 26
0 8 -8 27 -18 41 -10 15 -31 53 -47 84 -16 31 -34 54 -40 51 -7 -4 -7 -3 0 4
11 12 68 31 112 39 29 5 86 21 113 31 22 9 28 10 51 12 11 0 18 5 15 10 -4 5
2 8 11 6 10 -1 24 3 32 9 8 6 17 10 20 8 9 -5 91 20 91 27 0 4 8 7 18 7 9 0
27 4 38 7 18 6 24 2 38 -30 17 -41 64 -125 75 -133 3 -3 7 -12 9 -20 5 -21 22
-40 36 -40 14 0 52 42 48 52 -1 5 2 7 6 5 13 -3 102 75 96 84 -3 5 2 9 10 9 9
0 16 4 16 9 0 8 -58 102 -80 128 -19 23 -9 33 87 78 54 26 101 51 104 57 3 5
10 9 15 9 19 -2 44 11 39 20 -3 5 0 6 8 3 8 -3 22 3 32 13 10 9 23 18 29 19
15 2 140 77 144 86 2 5 9 8 15 8 7 0 40 18 74 39 52 34 62 37 68 23 3 -9 3
-13 -1 -9 -9 9 -56 -102 -49 -113 3 -5 0 -10 -5 -12 -6 -2 -12 -10 -14 -18 -5
-22 -63 -155 -106 -241 -16 -32 -27 -60 -24 -63 2 -3 1 -4 -3 -1 -9 7 -72
-108 -66 -120 4 -5 3 -7 -2 -3 -5 5 -24 -16 -43 -45 -19 -28 -44 -62 -54 -74
-12 -12 -17 -27 -13 -34 5 -7 4 -10 -2 -6 -6 4 -18 -2 -28 -13 -10 -11 -14
-20 -9 -20 5 0 1 -5 -9 -11 -9 -6 -15 -15 -11 -20 3 -5 1 -8 -5 -7 -6 2 -34
-22 -63 -53 -29 -30 -70 -68 -90 -83 -21 -16 -35 -33 -31 -39 3 -6 1 -7 -5 -3
-7 4 -24 -5 -39 -21 -14 -15 -23 -22 -18 -14 5 8 -9 1 -30 -15 -26 -19 -40
-25 -43 -16 -2 6 -8 10 -13 7 -5 -4 -6 0 -3 8 3 8 -1 21 -9 28 -7 8 -14 18
-14 22 0 4 -12 36 -26 70 -14 34 -28 70 -31 80 -3 10 -15 17 -31 17 -15 0 -23
-4 -20 -10 4 -6 -1 -7 -11 -3 -13 5 -15 3 -9 -7 5 -8 4 -11 -2 -7 -5 3 -31 -5
-58 -18 -27 -12 -55 -21 -62 -18 -14 6 -16 -9 -7 -44 4 -13 11 -20 17 -16 5 3
7 1 4 -4 -10 -16 4 -74 16 -66 5 3 7 1 3 -5 -7 -12 12 -112 23 -112 13 0 11
-52 -3 -65 -7 -8 -16 -12 -19 -9 -3 3 -16 0 -29 -7 -12 -7 -25 -14 -28 -14 -3
0 -18 -6 -35 -12 -33 -13 -178 -56 -183 -54 -1 1 -17 -5 -35 -12 -35 -15 -72
-8 -72 14 0 30 -30 139 -38 139 -4 0 -6 4 -3 8 8 13 -23 110 -37 115 -19 7
-77 -4 -71 -14 3 -5 -2 -6 -10 -3 -9 3 -16 1 -16 -6 0 -6 -3 -9 -7 -7 -5 3
-19 0 -33 -6 -14 -5 -36 -9 -49 -8 -13 2 -21 -2 -17 -7 3 -5 -5 -7 -17 -5 -30
6 -32 -23 -7 -82 10 -24 16 -46 13 -49 -3 -3 -1 -12 5 -19 7 -8 9 -17 6 -20
-4 -3 -3 -14 1 -24 12 -27 17 -103 8 -104 -48 -3 -101 -10 -113 -15 -15 -6
-48 -11 -102 -16 -16 -1 -28 -5 -28 -8 0 -4 -10 -6 -22 -5 -13 1 -50 -2 -83
-7 -33 -5 -75 -9 -92 -8 -18 0 -33 -3 -33 -8 0 -5 -6 -9 -12 -9 -10 0 -13 37
-13 151 l0 151 -105 2 c-69 1 -109 -2 -119 -10 -12 -10 -13 -9 -7 2 6 9 1 8
-16 -3 -24 -16 -25 -19 -25 -147 0 -83 -5 -135 -12 -142 -8 -8 -11 -8 -11 2 0
10 -11 12 -40 8 -22 -3 -40 -2 -40 2 0 7 -51 13 -127 15 -17 1 -29 4 -27 7 2
3 -12 6 -31 7 -46 2 -79 19 -67 35 5 7 9 26 8 42 -1 17 2 35 6 40 14 21 35
165 21 151 -3 -3 -11 -1 -18 4 -7 5 -25 11 -41 13 -17 2 -35 6 -41 10 -6 4
-22 7 -34 7 -42 -1 -74 5 -81 14 -4 6 -16 6 -31 -1 -20 -9 -25 -18 -23 -42 1
-17 -1 -31 -5 -31 -4 0 -8 -8 -8 -17 0 -10 -3 -38 -6 -63 -4 -25 -7 -55 -8
-67 -1 -11 -5 -19 -9 -16 -5 2 -8 -3 -8 -13 0 -12 -4 -14 -12 -7 -7 6 -20 11
-28 12 -31 2 -56 7 -65 13 -6 3 -18 4 -27 3 -10 -2 -18 1 -18 7 0 6 -11 8 -25
6 -15 -3 -22 -1 -18 5 4 6 -2 8 -15 5 -12 -4 -22 -2 -22 4 0 6 -9 8 -20 5 -11
-3 -20 -1 -20 5 0 6 -7 8 -15 4 -8 -3 -15 -2 -15 3 0 4 -7 8 -15 9 -8 1 -21 3
-28 4 -7 1 -13 9 -13 19 0 10 3 16 7 13 6 -3 21 52 16 60 -1 1 4 10 12 19 7 9
11 24 7 32 -3 9 -2 13 4 10 6 -3 10 3 10 14 0 31 1 35 12 48 5 7 7 17 4 22 -4
5 -1 13 5 17 8 5 9 3 4 -6 -5 -9 -4 -11 3 -6 28 17 -7 63 -53 70 -9 1 -21 9
-26 17 -5 8 -9 10 -9 5 0 -5 -7 -3 -15 4 -8 6 -19 9 -25 5 -5 -3 -10 -1 -10 6
0 6 -8 9 -20 6 -11 -3 -20 -1 -20 3 0 5 -9 7 -20 5 -11 -2 -20 1 -20 7 0 12
-15 2 -15 -10 -1 -4 -6 -17 -13 -30 -7 -12 -10 -28 -6 -34 4 -7 3 -8 -4 -4
-11 6 -17 -12 -13 -36 0 -5 -4 -8 -10 -8 -6 0 -9 -6 -6 -14 3 -8 -1 -17 -10
-20 -9 -4 -13 -9 -10 -12 3 -3 -1 -21 -9 -40 -8 -19 -12 -40 -8 -46 5 -8 1 -9
-12 -4 -10 5 -25 9 -31 9 -7 0 -13 3 -13 6 0 3 -21 17 -47 31 -27 13 -50 27
-53 30 -7 9 -44 23 -53 21 -5 -1 -6 3 -2 9 6 9 -8 14 -28 11 -5 -1 -6 3 -2 9
6 9 -7 14 -27 11 -5 0 -7 5 -5 12 1 6 -3 11 -9 10 -15 -3 -12 28 4 45 7 8 9
18 6 24 -4 7 -2 8 4 4 10 -6 18 8 10 17 -1 1 14 19 34 40 20 20 43 51 51 67
14 26 13 30 -4 46 -10 9 -19 13 -19 8 0 -5 -4 -3 -9 4 -4 7 -17 15 -27 16 -10
2 -19 8 -19 15 0 19 -35 41 -53 34 -10 -4 -13 -2 -8 5 4 7 1 12 -7 12 -8 0
-20 7 -27 15 -12 14 -15 14 -31 -1 -10 -9 -16 -21 -13 -25 3 -5 0 -9 -6 -9 -6
0 -8 -4 -5 -10 3 -5 1 -10 -5 -10 -7 0 -9 -7 -6 -16 3 -8 2 -13 -3 -10 -8 5
-22 -26 -26 -59 -5 -29 -18 -45 -30 -35 -6 5 -15 6 -19 2 -4 -4 -6 0 -4 8 2 8
-3 14 -9 13 -7 -2 -12 0 -11 5 5 12 -28 52 -36 44 -4 -4 -6 -2 -4 3 4 15 -27
56 -37 47 -5 -4 -5 -1 -1 6 5 8 -3 23 -21 39 -15 14 -22 22 -14 18 9 -5 7 1
-5 17 -10 14 -22 24 -26 21 -4 -2 -5 2 -2 10 3 8 -2 20 -11 27 -8 7 -15 18
-15 26 0 7 -5 16 -12 20 -7 5 -8 3 -3 -6 5 -8 4 -11 -3 -6 -6 4 -9 13 -5 21 3
8 0 15 -7 15 -6 0 -8 5 -5 10 3 6 1 10 -4 10 -6 0 -11 6 -11 14 0 7 -7 19 -15
26 -8 7 -12 16 -9 21 3 5 0 9 -5 9 -6 0 -10 3 -10 8 3 19 -2 33 -11 27 -6 -4
-7 1 -3 11 4 12 3 15 -5 10 -8 -4 -10 -2 -6 7 3 8 1 18 -5 22 -6 3 -11 15 -11
26 0 11 -4 17 -10 14 -6 -3 -7 1 -4 9 3 9 1 16 -5 16 -6 0 -10 3 -10 8 4 24
-2 42 -13 36 -8 -5 -9 -2 -5 9 3 10 2 17 -3 17 -5 0 -7 7 -4 15 4 8 1 15 -6
15 -6 0 -9 4 -5 9 3 5 1 12 -5 16 -6 4 -8 11 -5 16 4 5 1 9 -5 9 -6 0 -9 4 -5
9 3 5 1 12 -5 16 -6 4 -8 11 -5 16 4 5 1 9 -4 9 -6 0 -10 3 -10 8 4 22 -2 42
-11 37 -10 -6 -14 7 -5 17 9 9 34 5 28 -5z"/>
</g>
</svg>
